<?xml version="1.0" encoding="utf-8"?>
<svg xmlns="http://www.w3.org/2000/svg" style="margin: auto; display: block; shape-rendering: auto; background: none;" width="248" height="50" preserveAspectRatio="xMidYMid">
<style type="text/css">
  text {
    text-anchor: middle; font-size: 44px; opacity: 0;
  }
</style>
<g style="transform-origin: 124px 27.5px; transform: scale(0.6875);">
<g transform="translate(124,27.5)">
  <g transform="translate(0,0)"><g class="path" style="transform: matrix(1, 0, 0, 1, 0, 0); transform-origin: -148.735px -5.61888px; animation: 0.5s linear -0.3025s infinite normal forwards running tremble-46363951-2039-4c18-a7dc-39a98b542109;"><path d="M5.76 0L5.76-44.80L32.32-44.80L32.32-39.55L11.84-39.55L11.84-25.86L28.93-25.86L28.93-20.86L11.84-20.86L11.84 0L5.76 0" fill="#000000" stroke="none" stroke-width="none" transform="translate(-167.77499389648438,16.781118367513027)" style="fill: rgb(0, 0, 0);"></path></g><g class="path" style="transform: matrix(1, 0, 0, 1, 0, 0); transform-origin: -115.965px 0.526119px; animation: 0.5s linear -0.275s infinite normal forwards running tremble-46363951-2039-4c18-a7dc-39a98b542109;"><path d="M67.46-4.16L66.24 0.32L66.24 0.32Q63.17 0.32 61.38-0.90L61.38-0.90L61.38-0.90Q59.58-2.11 58.88-4.42L58.88-4.42L58.88-4.42Q56.64-2.11 53.73-0.67L53.73-0.67L53.73-0.67Q50.82 0.77 47.36 0.77L47.36 0.77L47.36 0.77Q45.18 0.77 43.17 0.10L43.17 0.10L43.17 0.10Q41.15-0.58 39.58-2.05L39.58-2.05L39.58-2.05Q38.02-3.52 37.09-5.89L37.09-5.89L37.09-5.89Q36.16-8.26 36.16-11.65L36.16-11.65L36.16-33.28L41.92-33.28L41.92-12.42L41.92-12.42Q41.92-8.51 43.55-6.43L43.55-6.43L43.55-6.43Q45.18-4.35 48.45-4.35L48.45-4.35L48.45-4.35Q51.14-4.35 53.57-5.41L53.57-5.41L53.57-5.41Q56-6.46 57.92-8.26L57.92-8.26L57.92-33.28L63.68-33.28L63.68-8.64L63.68-8.64Q63.68-7.23 64-6.37L64-6.37L64-6.37Q64.32-5.50 64.83-5.02L64.83-5.02L64.83-5.02Q65.34-4.54 66.05-4.35L66.05-4.35L66.05-4.35Q66.75-4.16 67.46-4.16L67.46-4.16" fill="#000000" stroke="none" stroke-width="none" transform="translate(-167.77499389648438,16.781118367513027)" style="fill: rgb(0, 0, 0);"></path></g><g class="path" style="transform: matrix(1, 0, 0, 1, 0, 0); transform-origin: -78.655px -0.243881px; animation: 0.5s linear -0.2475s infinite normal forwards running tremble-46363951-2039-4c18-a7dc-39a98b542109;"><path d="M80.70-33.28L80.70-27.71L80.70-27.71Q82.50-30.40 85.28-32.22L85.28-32.22L85.28-32.22Q88.06-34.05 91.90-34.05L91.90-34.05L91.90-34.05Q97.54-34.05 100.32-30.66L100.32-30.66L100.32-30.66Q103.10-27.26 103.10-21.70L103.10-21.70L103.10 0L97.34 0L97.34-21.06L97.34-21.06Q97.34-24.70 95.68-26.85L95.68-26.85L95.68-26.85Q94.02-28.99 90.94-28.99L90.94-28.99L90.94-28.99Q89.47-28.99 88.06-28.45L88.06-28.45L88.06-28.45Q86.66-27.90 85.34-26.94L85.34-26.94L85.34-26.94Q84.03-25.98 82.91-24.70L82.91-24.70L82.91-24.70Q81.79-23.42 80.90-22.02L80.90-22.02L80.90 0L75.14 0L75.14-33.28L80.70-33.28" fill="#000000" stroke="none" stroke-width="none" transform="translate(-167.77499389648438,16.781118367513027)" style="fill: rgb(0, 0, 0);"></path></g><g class="path" style="transform: matrix(1, 0, 0, 1, 0, 0); transform-origin: -40.675px -5.61888px; animation: 0.5s linear -0.22s infinite normal forwards running tremble-46363951-2039-4c18-a7dc-39a98b542109;"><path d="M113.66 0L113.66-44.80L140.54-44.80L140.54-39.55L119.74-39.55L119.74-25.92L137.66-25.92L137.66-20.80L119.74-20.80L119.74-5.25L140.54-5.25L140.54 0L113.66 0" fill="#000000" stroke="none" stroke-width="none" transform="translate(-167.77499389648438,16.781118367513027)" style="fill: rgb(0, 0, 0);"></path></g><g class="path" style="transform: matrix(1, 0, 0, 1, 0, 0); transform-origin: -8.355px 0.0811195px; animation: 0.5s linear -0.1925s infinite normal forwards running tremble-46363951-2039-4c18-a7dc-39a98b542109;"><path d="M144.06-3.14L155.90-16.90L144.51-30.08L148.99-33.98L159.30-20.67L169.41-33.73L173.70-30.08L162.62-17.15L174.78-3.14L170.43 0.58L159.23-13.31L148.16 0.45L144.06-3.14" fill="#000000" stroke="none" stroke-width="none" transform="translate(-167.77499389648438,16.781118367513027)" style="fill: rgb(0, 0, 0);"></path></g><g class="path" style="transform: matrix(1, 0, 0, 1, 0, 0); transform-origin: 24.255px 0.141119px; animation: 0.5s linear -0.165s infinite normal forwards running tremble-46363951-2039-4c18-a7dc-39a98b542109;"><path d="M206.53-14.27L183.23-14.27L183.23-14.27Q183.81-9.60 186.50-6.98L186.50-6.98L186.50-6.98Q189.18-4.35 193.60-4.35L193.60-4.35L193.60-4.35Q196.48-4.35 198.78-4.96L198.78-4.96L198.78-4.96Q201.09-5.57 203.20-6.53L203.20-6.53L204.54-1.60L204.54-1.60Q202.24-0.51 199.36 0.13L199.36 0.13L199.36 0.13Q196.48 0.77 192.90 0.77L192.90 0.77L192.90 0.77Q189.31 0.77 186.43-0.42L186.43-0.42L186.43-0.42Q183.55-1.60 181.54-3.81L181.54-3.81L181.54-3.81Q179.52-6.02 178.43-9.25L178.43-9.25L178.43-9.25Q177.34-12.48 177.34-16.64L177.34-16.64L177.34-16.64Q177.34-20.35 178.43-23.55L178.43-23.55L178.43-23.55Q179.52-26.75 181.50-29.09L181.50-29.09L181.50-29.09Q183.49-31.42 186.24-32.74L186.24-32.74L186.24-32.74Q188.99-34.05 192.38-34.05L192.38-34.05L192.38-34.05Q195.97-34.05 198.66-32.83L198.66-32.83L198.66-32.83Q201.34-31.62 203.14-29.50L203.14-29.50L203.14-29.50Q204.93-27.39 205.82-24.58L205.82-24.58L205.82-24.58Q206.72-21.76 206.72-18.62L206.72-18.62L206.72-18.62Q206.72-16.38 206.53-14.27L206.53-14.27zM192.26-29.06L192.26-29.06L192.26-29.06Q188.48-29.06 186.08-26.50L186.08-26.50L186.08-26.50Q183.68-23.94 183.17-18.94L183.17-18.94L201.41-18.94L201.41-18.94Q201.41-23.81 198.98-26.43L198.98-26.43L198.98-26.43Q196.54-29.06 192.26-29.06" fill="#000000" stroke="none" stroke-width="none" transform="translate(-167.77499389648438,16.781118367513027)" style="fill: rgb(0, 0, 0);"></path></g><g class="path" style="transform: matrix(1, 0, 0, 1, 0, 0); transform-origin: 56.515px -0.243881px; animation: 0.5s linear -0.1375s infinite normal forwards running tremble-46363951-2039-4c18-a7dc-39a98b542109;"><path d="M234.18-33.66L232.45-27.71L232.45-27.71Q231.23-28.22 229.57-28.22L229.57-28.22L229.57-28.22Q227.78-28.22 226.08-27.46L226.08-27.46L226.08-27.46Q224.38-26.69 223.07-25.15L223.07-25.15L223.07-25.15Q221.76-23.62 220.96-21.22L220.96-21.22L220.96-21.22Q220.16-18.82 220.16-15.55L220.16-15.55L220.16 0L214.40 0L214.40-33.28L219.97-33.28L219.97-26.05L219.97-26.05Q220.54-27.58 221.50-29.06L221.50-29.06L221.50-29.06Q222.46-30.53 223.78-31.62L223.78-31.62L223.78-31.62Q225.09-32.70 226.82-33.38L226.82-33.38L226.82-33.38Q228.54-34.05 230.66-34.05L230.66-34.05L230.66-34.05Q231.62-34.05 232.54-33.95L232.54-33.95L232.54-33.95Q233.47-33.86 234.18-33.66L234.18-33.66" fill="#000000" stroke="none" stroke-width="none" transform="translate(-167.77499389648438,16.781118367513027)" style="fill: rgb(0, 0, 0);"></path></g><g class="path" style="transform: matrix(1, 0, 0, 1, 0, 0); transform-origin: 80.865px 0.141119px; animation: 0.5s linear -0.11s infinite normal forwards running tremble-46363951-2039-4c18-a7dc-39a98b542109;"><path d="M260.99-32.06L259.26-27.20L259.26-27.20Q257.41-28.10 255.81-28.51L255.81-28.51L255.81-28.51Q254.21-28.93 252.22-28.93L252.22-28.93L252.22-28.93Q249.98-28.93 248.03-28.10L248.03-28.10L248.03-28.10Q246.08-27.26 244.67-25.70L244.67-25.70L244.67-25.70Q243.26-24.13 242.46-21.89L242.46-21.89L242.46-21.89Q241.66-19.65 241.66-16.77L241.66-16.77L241.66-16.77Q241.66-14.14 242.40-11.90L242.40-11.90L242.40-11.90Q243.14-9.66 244.48-7.97L244.48-7.97L244.48-7.97Q245.82-6.27 247.68-5.31L247.68-5.31L247.68-5.31Q249.54-4.35 251.84-4.35L251.84-4.35L251.84-4.35Q254.27-4.35 256-4.86L256-4.86L256-4.86Q257.73-5.38 259.71-6.46L259.71-6.46L261.50-1.60L261.50-1.60Q259.46-0.51 257.02 0.13L257.02 0.13L257.02 0.13Q254.59 0.77 251.46 0.77L251.46 0.77L251.46 0.77Q247.87 0.77 244.99-0.51L244.99-0.51L244.99-0.51Q242.11-1.79 240.06-4.10L240.06-4.10L240.06-4.10Q238.02-6.40 236.90-9.60L236.90-9.60L236.90-9.60Q235.78-12.80 235.78-16.64L235.78-16.64L235.78-16.64Q235.78-20.22 236.90-23.39L236.90-23.39L236.90-23.39Q238.02-26.56 240.13-28.93L240.13-28.93L240.13-28.93Q242.24-31.30 245.22-32.67L245.22-32.67L245.22-32.67Q248.19-34.05 251.90-34.05L251.90-34.05L251.90-34.05Q254.78-34.05 256.90-33.54L256.90-33.54L256.90-33.54Q259.01-33.02 260.99-32.06L260.99-32.06" fill="#000000" stroke="none" stroke-width="none" transform="translate(-167.77499389648438,16.781118367513027)" style="fill: rgb(0, 0, 0);"></path></g><g class="path" style="transform: matrix(1, 0, 0, 1, 0, 0); transform-origin: 103.325px 0.141119px; animation: 0.5s linear -0.0825s infinite normal forwards running tremble-46363951-2039-4c18-a7dc-39a98b542109;"><path d="M273.98-33.28L273.98 0L268.22 0L268.22-33.28L273.98-33.28" fill="#000000" stroke="none" stroke-width="none" transform="translate(-167.77499389648438,16.781118367513027)" style="fill: rgb(0, 0, 0);"></path></g><g class="path" style="transform: matrix(1, 0, 0, 1, 0, 0); transform-origin: 103.33px -26.2289px; animation: 0.5s linear -0.055s infinite normal forwards running tremble-46363951-2039-4c18-a7dc-39a98b542109;"><path d="M271.10-38.98L271.10-38.98L271.10-38.98Q269.44-38.98 268.26-40.16L268.26-40.16L268.26-40.16Q267.07-41.34 267.07-43.01L267.07-43.01L267.07-43.01Q267.07-44.86 268.16-45.95L268.16-45.95L268.16-45.95Q269.25-47.04 271.10-47.04L271.10-47.04L271.10-47.04Q272.77-47.04 273.95-45.86L273.95-45.86L273.95-45.86Q275.14-44.67 275.14-43.01L275.14-43.01L275.14-43.01Q275.14-41.15 274.05-40.06L274.05-40.06L274.05-40.06Q272.96-38.98 271.10-38.98" fill="#000000" stroke="none" stroke-width="none" transform="translate(-167.77499389648438,16.781118367513027)" style="fill: rgb(0, 0, 0);"></path></g><g class="path" style="transform: matrix(1, 0, 0, 1, 0, 0); transform-origin: 126.145px 0.141119px; animation: 0.5s linear -0.0275s infinite normal forwards running tremble-46363951-2039-4c18-a7dc-39a98b542109;"><path d="M281.34-2.69L283.78-7.49L283.78-7.49Q285.44-6.02 287.97-5.12L287.97-5.12L287.97-5.12Q290.50-4.22 293.38-4.22L293.38-4.22L293.38-4.22Q296.96-4.22 298.78-5.41L298.78-5.41L298.78-5.41Q300.61-6.59 300.61-8.45L300.61-8.45L300.61-8.45Q300.61-9.41 300.26-10.24L300.26-10.24L300.26-10.24Q299.90-11.07 298.98-11.84L298.98-11.84L298.98-11.84Q298.05-12.61 296.45-13.34L296.45-13.34L296.45-13.34Q294.85-14.08 292.29-14.98L292.29-14.98L292.29-14.98Q287.55-16.58 285.25-18.78L285.25-18.78L285.25-18.78Q282.94-20.99 282.94-24.90L282.94-24.90L282.94-24.90Q282.94-26.82 283.81-28.48L283.81-28.48L283.81-28.48Q284.67-30.14 286.30-31.39L286.30-31.39L286.30-31.39Q287.94-32.64 290.27-33.34L290.27-33.34L290.27-33.34Q292.61-34.05 295.62-34.05L295.62-34.05L295.62-34.05Q298.88-34.05 301.34-33.38L301.34-33.38L301.34-33.38Q303.81-32.70 305.79-31.68L305.79-31.68L304.19-26.94L304.19-26.94Q302.46-27.97 300.26-28.61L300.26-28.61L300.26-28.61Q298.05-29.25 295.36-29.25L295.36-29.25L295.36-29.25Q292.03-29.25 290.30-27.90L290.30-27.90L290.30-27.90Q288.58-26.56 288.58-24.96L288.58-24.96L288.58-24.96Q288.58-24.19 288.86-23.55L288.86-23.55L288.86-23.55Q289.15-22.91 289.92-22.34L289.92-22.34L289.92-22.34Q290.69-21.76 291.97-21.18L291.97-21.18L291.97-21.18Q293.25-20.61 295.17-19.97L295.17-19.97L295.17-19.97Q298.30-18.88 300.48-17.76L300.48-17.76L300.48-17.76Q302.66-16.64 304.00-15.30L304.00-15.30L304.00-15.30Q305.34-13.95 305.92-12.38L305.92-12.38L305.92-12.38Q306.50-10.82 306.50-8.90L306.50-8.90L306.50-8.90Q306.50-6.66 305.54-4.86L305.54-4.86L305.54-4.86Q304.58-3.07 302.85-1.82L302.85-1.82L302.85-1.82Q301.12-0.58 298.66 0.10L298.66 0.10L298.66 0.10Q296.19 0.77 293.18 0.77L293.18 0.77L293.18 0.77Q289.34 0.77 286.34-0.19L286.34-0.19L286.34-0.19Q283.33-1.15 281.34-2.69L281.34-2.69" fill="#000000" stroke="none" stroke-width="none" transform="translate(-167.77499389648438,16.781118367513027)" style="fill: rgb(0, 0, 0);"></path></g><g class="path" style="transform: matrix(1, 0, 0, 1, 0, 0); transform-origin: 158.85px 0.141119px; animation: 0.5s linear 0s infinite normal forwards running tremble-46363951-2039-4c18-a7dc-39a98b542109;"><path d="M341.12-14.27L317.82-14.27L317.82-14.27Q318.40-9.60 321.09-6.98L321.09-6.98L321.09-6.98Q323.78-4.35 328.19-4.35L328.19-4.35L328.19-4.35Q331.07-4.35 333.38-4.96L333.38-4.96L333.38-4.96Q335.68-5.57 337.79-6.53L337.79-6.53L339.14-1.60L339.14-1.60Q336.83-0.51 333.95 0.13L333.95 0.13L333.95 0.13Q331.07 0.77 327.49 0.77L327.49 0.77L327.49 0.77Q323.90 0.77 321.02-0.42L321.02-0.42L321.02-0.42Q318.14-1.60 316.13-3.81L316.13-3.81L316.13-3.81Q314.11-6.02 313.02-9.25L313.02-9.25L313.02-9.25Q311.94-12.48 311.94-16.64L311.94-16.64L311.94-16.64Q311.94-20.35 313.02-23.55L313.02-23.55L313.02-23.55Q314.11-26.75 316.10-29.09L316.10-29.09L316.10-29.09Q318.08-31.42 320.83-32.74L320.83-32.74L320.83-32.74Q323.58-34.05 326.98-34.05L326.98-34.05L326.98-34.05Q330.56-34.05 333.25-32.83L333.25-32.83L333.25-32.83Q335.94-31.62 337.73-29.50L337.73-29.50L337.73-29.50Q339.52-27.39 340.42-24.58L340.42-24.58L340.42-24.58Q341.31-21.76 341.31-18.62L341.31-18.62L341.31-18.62Q341.31-16.38 341.12-14.27L341.12-14.27zM326.85-29.06L326.85-29.06L326.85-29.06Q323.07-29.06 320.67-26.50L320.67-26.50L320.67-26.50Q318.27-23.94 317.76-18.94L317.76-18.94L336.00-18.94L336.00-18.94Q336.00-23.81 333.57-26.43L333.57-26.43L333.57-26.43Q331.14-29.06 326.85-29.06" fill="#000000" stroke="none" stroke-width="none" transform="translate(-167.77499389648438,16.781118367513027)" style="fill: rgb(0, 0, 0);"></path></g></g>
</g>
</g>
<style id="tremble-46363951-2039-4c18-a7dc-39a98b542109" data-anikit="">@keyframes tremble-46363951-2039-4c18-a7dc-39a98b542109 {
  0% { transform: translate(0px,0px) rotate(0deg) scale(1) }
  3.33333% { transform: translate(-0.18923px,1.45485px) rotate(0deg) scale(1) }
  6.66667% { transform: translate(-0.84296px,-1.32524px) rotate(0deg) scale(1) }
  10% { transform: translate(0.67971px,1.00422px) rotate(0deg) scale(1) }
  13.33333% { transform: translate(-0.5056px,0.83616px) rotate(0deg) scale(1) }
  16.66667% { transform: translate(1.31368px,-0.51401px) rotate(0deg) scale(1) }
  20% { transform: translate(-1.21184px,1.49193px) rotate(0deg) scale(1) }
  23.33333% { transform: translate(1.09065px,-0.21259px) rotate(0deg) scale(1) }
  26.66667% { transform: translate(-1.49916px,0.56159px) rotate(0deg) scale(1) }
  30% { transform: translate(1.48086px,1.21228px) rotate(0deg) scale(1) }
  33.33333% { transform: translate(-1.43889px,-1.152px) rotate(0deg) scale(1) }
  36.66667% { transform: translate(1.35914px,1.34835px) rotate(0deg) scale(1) }
  40% { transform: translate(-1.42834px,0.3091px) rotate(0deg) scale(1) }
  43.33333% { transform: translate(1.47472px,-1.49889px) rotate(0deg) scale(1) }
  46.66667% { transform: translate(-0.92402px,1.4416px) rotate(0deg) scale(1) }
  50% { transform: translate(1.0657px,-0.75306px) rotate(0deg) scale(1) }
  53.33333% { transform: translate(-1.19035px,-1.07484px) rotate(0deg) scale(1) }
  56.66667% { transform: translate(0.28828px,0.79337px) rotate(0deg) scale(1) }
  60% { transform: translate(-0.47167px,-1.42789px) rotate(0deg) scale(1) }
  63.33333% { transform: translate(0.64753px,-0.09795px) rotate(0deg) scale(1) }
  66.66667% { transform: translate(0.41006px,-0.26292px) rotate(0deg) scale(1) }
  70% { transform: translate(-0.22477px,-1.3683px) rotate(0deg) scale(1) }
  73.33333% { transform: translate(0.03588px,0.92931px) rotate(0deg) scale(1) }
  76.66667% { transform: translate(-1.01937px,-1.18398px) rotate(0deg) scale(1) }
  80% { transform: translate(0.8724px,-0.60494px) rotate(0deg) scale(1) }
  83.33333% { transform: translate(-0.71151px,1.4786px) rotate(0deg) scale(1) }
  86.66667% { transform: translate(1.40734px,-1.49607px) rotate(0deg) scale(1) }
  90% { transform: translate(-1.33062px,0.46957px) rotate(0deg) scale(1) }
  93.33333% { transform: translate(1.23264px,1.26738px) rotate(0deg) scale(1) }
  96.66667% { transform: translate(-1.48975px,-1.03867px) rotate(0deg) scale(1) }
  100% { transform: translate(0,0) rotate(0) scale(1) }
}</style></svg>